<svg version="1.1" id="Layer_1" xmlns="http://www.w3.org/2000/svg" xmlns:xlink="http://www.w3.org/1999/xlink" x="0px" y="0px"
	 width="100%" viewBox="0 0 512 512" enable-background="new 0 0 512 512" xml:space="preserve">
<path fill="#FAE458" opacity="1.000000" stroke="none" 
	d="
M257.000000,1.000000 
	C299.354218,1.000000 341.708466,1.000000 384.531342,1.468657 
	C385.028839,28.335402 385.057648,54.733490 385.038818,81.283981 
	C384.991180,81.436394 384.914276,81.746368 384.628815,81.602310 
	C359.718903,62.864319 325.068481,74.879311 318.370605,104.445869 
	C314.850037,119.986778 319.229614,134.229599 327.104767,147.371704 
	C339.302795,167.727890 357.110535,182.330734 377.405640,194.064240 
	C379.583038,195.323105 382.441101,195.404663 384.958740,196.079865 
	C384.934052,196.127365 384.913452,196.232437 384.929932,196.686249 
	C384.952179,217.035934 384.957947,236.931793 384.505066,256.895325 
	C341.689667,256.958771 299.332855,256.954529 256.971588,256.986633 
	C256.967133,257.023041 257.039368,257.035706 257.023560,256.564972 
	C257.005157,171.062820 257.002563,86.031410 257.000000,1.000000 
z"/>
<path fill="#FAE458" opacity="1.000000" stroke="none" 
	d="
M130.000000,513.000000 
	C93.979103,513.000000 57.958210,513.000000 21.794224,512.729492 
	C21.204494,511.999542 20.842226,511.337738 20.298559,511.111115 
	C12.324513,507.786957 6.760128,502.036621 3.034771,494.331696 
	C2.732294,493.706085 1.695544,493.435547 1.000000,493.000000 
	C1.000000,414.645782 1.000000,336.291534 1.468657,257.468811 
	C18.207315,257.000336 34.477352,256.979370 50.747311,257.005127 
	C77.141014,257.046906 103.534660,257.119354 129.942688,257.636047 
	C130.017853,282.456726 130.078644,306.820221 130.091980,331.382263 
	C130.044495,331.580872 129.933731,331.974854 129.577652,331.960632 
	C127.636848,331.070770 126.015678,330.254761 124.472954,329.310516 
	C105.058327,317.428070 80.196220,322.962036 67.932091,342.084229 
	C58.047588,357.496124 59.679047,373.540436 66.705330,389.259247 
	C78.213791,415.005402 99.005234,431.804504 122.811966,445.383667 
	C124.874748,446.560242 127.575722,446.618011 129.980804,447.651855 
	C129.987579,469.738831 129.993790,491.369415 130.000000,513.000000 
z"/>
<path fill="#F4BA5E" opacity="1.000000" stroke="none" 
	d="
M130.139450,331.183685 
	C130.078644,306.820221 130.017853,282.456726 129.952576,257.547760 
	C129.948074,257.002258 129.959320,256.824921 130.425751,256.893250 
	C172.941254,256.986298 214.990311,257.010986 257.039368,257.035706 
	C257.039368,257.035706 256.967133,257.023041 256.980530,257.458435 
	C256.995972,342.929230 256.997986,427.964600 257.000000,513.000000 
	C214.979111,513.000000 172.958206,513.000000 130.468658,513.000000 
	C129.993790,491.369415 129.987579,469.738831 129.976715,447.545044 
	C129.972076,446.981812 129.977295,446.768066 130.357346,446.817352 
	C133.489014,445.785980 136.536453,445.147797 138.937500,443.542725 
	C146.525879,438.469971 154.318314,433.555847 161.224976,427.638611 
	C178.852371,412.536560 192.864639,395.157104 196.603119,371.039764 
	C200.311279,347.118164 181.058990,323.530914 156.839645,322.924286 
	C146.851166,322.674133 138.359055,326.239197 130.139450,331.183685 
z"/>
<path fill="#F4BA5E" opacity="1.000000" stroke="none" 
	d="
M385.086487,81.131577 
	C385.057648,54.733490 385.028839,28.335402 385.000000,1.468657 
	C420.354218,1.000000 455.708466,1.000000 491.207153,1.288619 
	C491.555939,1.836307 491.708008,2.235813 491.972198,2.334132 
	C501.334656,5.818785 508.261597,11.708838 511.258514,21.589512 
	C511.345428,21.876045 512.397766,21.869757 513.000000,22.000000 
	C513.000000,100.020897 513.000000,178.041794 512.531372,256.531281 
	C495.453644,256.999878 478.844604,256.978271 462.235596,257.004944 
	C436.495361,257.046265 410.755188,257.120575 385.002869,257.092529 
	C384.990753,257.004089 384.963684,256.827667 384.963684,256.827667 
	C384.957947,236.931793 384.952179,217.035934 385.340851,196.644409 
	C388.547516,195.236816 391.627899,194.787781 394.128967,193.338760 
	C412.061829,182.949020 427.676300,169.784607 439.581299,152.736481 
	C449.472778,138.571747 455.256042,123.005394 451.945862,105.294434 
	C448.019226,84.285332 426.558777,68.946167 405.713104,73.031937 
	C398.582336,74.429581 391.947754,78.358917 385.086487,81.131577 
z"/>
<path fill="#70B7F2" opacity="1.000000" stroke="none" 
	d="
M129.938202,257.090576 
	C103.534660,257.119354 77.141014,257.046906 50.747311,257.005127 
	C34.477352,256.979370 18.207315,257.000336 1.468657,257.000153 
	C1.000000,178.645767 1.000000,100.291542 1.270446,21.792995 
	C1.999335,21.201744 2.657945,20.838842 2.886147,20.295252 
	C6.226672,12.337949 11.956017,6.754755 19.667183,3.037781 
	C20.293381,2.735939 20.564100,1.696628 21.000000,1.000000 
	C57.020893,1.000000 93.041786,1.000000 129.519089,1.468533 
	C129.991501,21.631250 130.007507,41.325436 129.966156,61.183472 
	C129.908768,61.347328 129.849380,61.689445 129.446228,61.672649 
	C122.728661,61.955631 118.564163,65.341476 115.858971,70.830826 
	C111.524826,79.625641 107.030602,88.346420 102.923485,97.245918 
	C101.216461,100.944794 99.083199,102.771736 94.818207,103.199867 
	C85.237976,104.161552 75.726784,105.809578 66.186508,107.171349 
	C59.574867,108.115089 54.465702,111.198814 52.468082,117.841331 
	C50.571007,124.149490 52.467804,129.535599 57.262825,134.101242 
	C64.731415,141.212585 72.160202,148.376724 79.304611,155.808105 
	C80.709816,157.269745 81.565765,160.158722 81.280357,162.193832 
	C79.896500,172.061508 78.097816,181.873459 76.325874,191.683426 
	C75.107948,198.426193 76.227249,204.395416 82.052223,208.578537 
	C87.658928,212.604935 93.542259,212.042587 99.448242,208.915070 
	C109.580299,203.549652 119.766014,198.285553 129.984802,193.150284 
	C130.040390,193.321655 130.119751,193.673111 130.076508,194.160614 
	C130.008621,215.373734 129.983978,236.099319 129.959320,256.824921 
	C129.959320,256.824921 129.948074,257.002258 129.938202,257.090576 
z"/>
<path fill="#70B7F2" opacity="1.000000" stroke="none" 
	d="
M257.468658,513.000000 
	C256.997986,427.964600 256.995972,342.929230 256.984985,257.422058 
	C299.332855,256.954529 341.689667,256.958771 384.505066,256.895325 
	C384.963684,256.827667 384.990753,257.004089 384.994690,257.549438 
	C384.993500,275.346161 384.988403,292.597534 384.599792,309.919861 
	C377.823486,310.622345 373.563171,314.053680 370.818390,319.787872 
	C366.652313,328.491364 362.057190,336.997711 358.138214,345.807495 
	C356.417877,349.674805 354.037567,351.229675 350.018890,351.719940 
	C340.608612,352.867981 331.264648,354.558716 321.855103,355.714081 
	C314.921692,356.565399 309.852966,359.590515 307.684967,366.430939 
	C305.498352,373.330078 308.268127,378.681580 313.225403,383.386139 
	C320.231232,390.034760 327.002014,396.932800 334.066376,403.516998 
	C336.538513,405.821106 337.288544,408.041840 336.635040,411.388794 
	C334.659027,421.508575 332.997284,431.690765 331.290894,441.861694 
	C330.269043,447.952209 332.053925,453.120361 337.031433,456.882385 
	C342.012207,460.646881 347.429321,460.949371 353.018860,458.225433 
	C354.663666,457.423889 356.268311,456.540497 357.902466,455.716614 
	C366.928619,451.165894 375.958252,446.622070 384.990356,442.539764 
	C384.995972,466.335785 384.997986,489.667877 385.000000,513.000000 
	C342.645782,513.000000 300.291534,513.000000 257.468658,513.000000 
z"/>
<path fill="#5C7BDD" opacity="1.000000" stroke="none" 
	d="
M384.983276,309.848907 
	C384.988403,292.597534 384.993500,275.346161 385.006775,257.637878 
	C410.755188,257.120575 436.495361,257.046265 462.235596,257.004944 
	C478.844604,256.978271 495.453644,256.999878 512.531372,256.999939 
	C513.000000,335.354218 513.000000,413.708466 512.726868,492.212341 
	C512.007019,492.816315 511.372253,493.191223 511.141937,493.736847 
	C507.792664,501.671051 502.078827,507.256866 494.381897,510.973877 
	C493.743927,511.281982 493.452484,512.307739 493.000000,513.000000 
	C457.312439,513.000000 421.624878,513.000000 385.468658,513.000000 
	C384.997986,489.667877 384.995972,466.335785 384.999268,442.449585 
	C385.004578,441.895538 385.002350,441.714355 385.326965,441.862396 
	C395.659943,447.278778 405.674774,452.534790 415.674133,457.820129 
	C421.621674,460.963806 427.503418,461.136444 433.057465,457.102966 
	C438.525208,453.132202 439.822144,447.390869 438.811829,441.086060 
	C437.183624,430.925323 435.160828,420.825012 433.702759,410.642181 
	C433.412964,408.618286 434.286346,405.730103 435.693787,404.277954 
	C442.996246,396.743469 450.628479,389.527496 458.180542,382.236481 
	C462.831482,377.746338 464.265686,372.243713 462.449066,366.250610 
	C460.673187,360.392029 456.418091,356.855621 450.208282,355.910980 
	C439.707245,354.313477 429.235077,352.487000 418.696838,351.197540 
	C415.592621,350.817688 414.049103,349.714081 412.766296,347.014740 
	C408.272766,337.559143 403.626770,328.173187 398.873535,318.844910 
	C396.033112,313.270508 391.703156,309.744995 385.009399,310.075592 
	C385.007294,309.999420 384.983307,309.848907 384.983276,309.848907 
z"/>
<path fill="#5C7BDD" opacity="1.000000" stroke="none" 
	d="
M130.023529,61.019619 
	C130.007507,41.325436 129.991501,21.631250 129.987747,1.468533 
	C172.020889,1.000000 214.041794,1.000000 256.531342,1.000000 
	C257.002563,86.031410 257.005157,171.062820 257.023560,256.564972 
	C214.990311,257.010986 172.941254,256.986298 130.425766,256.893250 
	C129.983978,236.099319 130.008621,215.373734 130.430969,194.242981 
	C141.138397,199.209229 151.429688,204.616440 161.765274,209.937607 
	C167.310837,212.792694 172.782333,212.293198 177.727402,208.639786 
	C182.683212,204.978470 184.758316,199.795197 183.776047,193.718933 
	C182.109406,183.409317 180.288330,173.121262 178.300903,162.868973 
	C177.694122,159.738785 178.343414,157.606064 180.688538,155.390350 
	C188.309448,148.189941 195.750824,140.797134 203.176422,133.393234 
	C207.507690,129.074631 209.190720,123.914970 207.286118,117.906693 
	C205.259140,111.512413 200.593933,108.107414 194.199905,107.128387 
	C184.202072,105.597572 174.174103,104.253036 164.140961,102.969688 
	C160.717667,102.531807 158.592529,101.065323 157.094009,97.788170 
	C153.298798,89.488365 148.849991,81.484749 145.131439,73.153404 
	C142.098221,66.357529 137.526642,61.996365 130.023529,61.019619 
z"/>
<path fill="#000000" opacity="1.000000" stroke="none" 
	d="
M513.000000,21.531088 
	C512.397766,21.869757 511.345428,21.876045 511.258514,21.589512 
	C508.261597,11.708838 501.334656,5.818785 491.972198,2.334132 
	C491.708008,2.235813 491.555939,1.836307 491.675781,1.288619 
	C498.926147,1.000000 505.852295,1.000000 513.000000,1.000000 
	C513.000000,7.685770 513.000000,14.373973 513.000000,21.531088 
z"/>
<path fill="#000000" opacity="1.000000" stroke="none" 
	d="
M493.469055,513.000000 
	C493.452484,512.307739 493.743927,511.281982 494.381897,510.973877 
	C502.078827,507.256866 507.792664,501.671051 511.141937,493.736847 
	C511.372253,493.191223 512.007019,492.816315 512.726868,492.681000 
	C513.000000,499.592743 513.000000,506.185455 513.000000,513.000000 
	C506.647736,513.000000 500.292908,513.000000 493.469055,513.000000 
z"/>
<path fill="#000000" opacity="1.000000" stroke="none" 
	d="
M1.000000,493.469055 
	C1.695544,493.435547 2.732294,493.706085 3.034771,494.331696 
	C6.760128,502.036621 12.324513,507.786957 20.298559,511.111115 
	C20.842226,511.337738 21.204494,511.999542 21.325565,512.729492 
	C14.407270,513.000000 7.814542,513.000000 1.000000,513.000000 
	C1.000000,506.647736 1.000000,500.292908 1.000000,493.469055 
z"/>
<path fill="#000000" opacity="1.000000" stroke="none" 
	d="
M20.530958,1.000000 
	C20.564100,1.696628 20.293381,2.735939 19.667183,3.037781 
	C11.956017,6.754755 6.226672,12.337949 2.886147,20.295252 
	C2.657945,20.838842 1.999335,21.201744 1.270446,21.324339 
	C1.000000,14.407272 1.000000,7.814544 1.000000,1.000000 
	C7.352261,1.000000 13.707088,1.000000 20.530958,1.000000 
z"/>
<path fill="#E05559" opacity="1.000000" stroke="none" 
	d="
M385.038818,81.283981 
	C391.947754,78.358917 398.582336,74.429581 405.713104,73.031937 
	C426.558777,68.946167 448.019226,84.285332 451.945862,105.294434 
	C455.256042,123.005394 449.472778,138.571747 439.581299,152.736481 
	C427.676300,169.784607 412.061829,182.949020 394.128967,193.338760 
	C391.627899,194.787781 388.547516,195.236816 385.324371,196.190613 
	C384.913452,196.232437 384.934052,196.127365 384.963257,195.608368 
	C384.966370,157.308365 384.940308,119.527367 384.914276,81.746368 
	C384.914276,81.746368 384.991180,81.436394 385.038818,81.283981 
z"/>
<path fill="#F97881" opacity="1.000000" stroke="none" 
	d="
M384.628815,81.602310 
	C384.940308,119.527367 384.966370,157.308365 384.987915,195.560852 
	C382.441101,195.404663 379.583038,195.323105 377.405640,194.064240 
	C357.110535,182.330734 339.302795,167.727890 327.104767,147.371704 
	C319.229614,134.229599 314.850037,119.986778 318.370605,104.445869 
	C325.068481,74.879311 359.718903,62.864319 384.628815,81.602310 
z"/>
<path fill="#F97881" opacity="1.000000" stroke="none" 
	d="
M129.976166,447.088623 
	C127.575722,446.618011 124.874748,446.560242 122.811966,445.383667 
	C99.005234,431.804504 78.213791,415.005402 66.705330,389.259247 
	C59.679047,373.540436 58.047588,357.496124 67.932091,342.084229 
	C80.196220,322.962036 105.058327,317.428070 124.472954,329.310516 
	C126.015678,330.254761 127.636848,331.070770 129.590393,332.430115 
	C129.965240,370.865265 129.971268,408.816650 129.977295,446.768066 
	C129.977295,446.768066 129.972076,446.981812 129.976166,447.088623 
z"/>
<path fill="#E05559" opacity="1.000000" stroke="none" 
	d="
M130.357346,446.817352 
	C129.971268,408.816650 129.965240,370.865265 129.946472,332.444336 
	C129.933731,331.974854 130.044495,331.580872 130.091980,331.382263 
	C138.359055,326.239197 146.851166,322.674133 156.839645,322.924286 
	C181.058990,323.530914 200.311279,347.118164 196.603119,371.039764 
	C192.864639,395.157104 178.852371,412.536560 161.224976,427.638611 
	C154.318314,433.555847 146.525879,438.469971 138.937500,443.542725 
	C136.536453,445.147797 133.489014,445.785980 130.357346,446.817352 
z"/>
<path fill="#F3BA5F" opacity="1.000000" stroke="none" 
	d="
M129.966156,61.183472 
	C137.526642,61.996365 142.098221,66.357529 145.131439,73.153404 
	C148.849991,81.484749 153.298798,89.488365 157.094009,97.788170 
	C158.592529,101.065323 160.717667,102.531807 164.140961,102.969688 
	C174.174103,104.253036 184.202072,105.597572 194.199905,107.128387 
	C200.593933,108.107414 205.259140,111.512413 207.286118,117.906693 
	C209.190720,123.914970 207.507690,129.074631 203.176422,133.393234 
	C195.750824,140.797134 188.309448,148.189941 180.688538,155.390350 
	C178.343414,157.606064 177.694122,159.738785 178.300903,162.868973 
	C180.288330,173.121262 182.109406,183.409317 183.776047,193.718933 
	C184.758316,199.795197 182.683212,204.978470 177.727402,208.639786 
	C172.782333,212.293198 167.310837,212.792694 161.765274,209.937607 
	C151.429688,204.616440 141.138397,199.209229 130.474213,193.755463 
	C130.119751,193.673111 130.040390,193.321655 130.004059,192.684021 
	C129.928268,148.594070 129.888824,105.141762 129.849396,61.689445 
	C129.849380,61.689445 129.908768,61.347328 129.966156,61.183472 
z"/>
<path fill="#F9E459" opacity="1.000000" stroke="none" 
	d="
M129.446243,61.672649 
	C129.888824,105.141762 129.928268,148.594070 129.948456,192.512650 
	C119.766014,198.285553 109.580299,203.549652 99.448242,208.915070 
	C93.542259,212.042587 87.658928,212.604935 82.052223,208.578537 
	C76.227249,204.395416 75.107948,198.426193 76.325874,191.683426 
	C78.097816,181.873459 79.896500,172.061508 81.280357,162.193832 
	C81.565765,160.158722 80.709816,157.269745 79.304611,155.808105 
	C72.160202,148.376724 64.731415,141.212585 57.262825,134.101242 
	C52.467804,129.535599 50.571007,124.149490 52.468082,117.841331 
	C54.465702,111.198814 59.574867,108.115089 66.186508,107.171349 
	C75.726784,105.809578 85.237976,104.161552 94.818207,103.199867 
	C99.083199,102.771736 101.216461,100.944794 102.923485,97.245918 
	C107.030602,88.346420 111.524826,79.625641 115.858971,70.830826 
	C118.564163,65.341476 122.728661,61.955631 129.446243,61.672649 
z"/>
<path fill="#F9E459" opacity="1.000000" stroke="none" 
	d="
M384.995636,441.985718 
	C375.958252,446.622070 366.928619,451.165894 357.902466,455.716614 
	C356.268311,456.540497 354.663666,457.423889 353.018860,458.225433 
	C347.429321,460.949371 342.012207,460.646881 337.031433,456.882385 
	C332.053925,453.120361 330.269043,447.952209 331.290894,441.861694 
	C332.997284,431.690765 334.659027,421.508575 336.635040,411.388794 
	C337.288544,408.041840 336.538513,405.821106 334.066376,403.516998 
	C327.002014,396.932800 320.231232,390.034760 313.225403,383.386139 
	C308.268127,378.681580 305.498352,373.330078 307.684967,366.430939 
	C309.852966,359.590515 314.921692,356.565399 321.855103,355.714081 
	C331.264648,354.558716 340.608612,352.867981 350.018890,351.719940 
	C354.037567,351.229675 356.417877,349.674805 358.138214,345.807495 
	C362.057190,336.997711 366.652313,328.491364 370.818390,319.787872 
	C373.563171,314.053680 377.823486,310.622345 384.599792,309.919861 
	C384.983307,309.848907 385.007294,309.999420 385.001984,310.533905 
	C384.998566,354.617035 385.000458,398.165710 385.002350,441.714355 
	C385.002350,441.714355 385.004578,441.895538 384.995636,441.985718 
z"/>
<path fill="#F3BA5F" opacity="1.000000" stroke="none" 
	d="
M385.326965,441.862396 
	C385.000458,398.165710 384.998566,354.617035 385.004089,310.610077 
	C391.703156,309.744995 396.033112,313.270508 398.873535,318.844910 
	C403.626770,328.173187 408.272766,337.559143 412.766296,347.014740 
	C414.049103,349.714081 415.592621,350.817688 418.696838,351.197540 
	C429.235077,352.487000 439.707245,354.313477 450.208282,355.910980 
	C456.418091,356.855621 460.673187,360.392029 462.449066,366.250610 
	C464.265686,372.243713 462.831482,377.746338 458.180542,382.236481 
	C450.628479,389.527496 442.996246,396.743469 435.693787,404.277954 
	C434.286346,405.730103 433.412964,408.618286 433.702759,410.642181 
	C435.160828,420.825012 437.183624,430.925323 438.811829,441.086060 
	C439.822144,447.390869 438.525208,453.132202 433.057465,457.102966 
	C427.503418,461.136444 421.621674,460.963806 415.674133,457.820129 
	C405.674774,452.534790 395.659943,447.278778 385.326965,441.862396 
z"/>
</svg>